# xmcd
#
# Track frame offsets:
#	150
#	8428
#	29584
#	45268
#	95990
#	116448
#	130570
#	144161
#	162004
#	174941
#	194957
#	223125
#	244293
#	277280
#
# Disc length: 4409 seconds
#
# Revision: 1
# Processed by: cddbd v1.5.1PL2 Copyright (c) Steve Scherf et al.
# Submitted via: freedbtool 1.11
#
DISCID=c611370e
DTITLE=Stevie Ray Vaughan - The Boxed Set [CD2]
DYEAR=1900
DGENRE=
TTITLE0=SCUTTLE BUTTIN'
TTITLE1=COULDN'T STAND THE WEATHER
TTITLE2=EMPTY ARMS
TTITLE3=LITTLE WING - THIRD STONE FROM THE SUN
TTITLE4=IF YOU HAVE TO KNOW
TTITLE5=THESE BLUES IS KILLING ME
TTITLE6=BOILER MAKER
TTITLE7=CHANGE IT
TTITLE8=SHAKE N'BABE
TTITLE9=MARY HAD A LITTLE LAMB (LIVE)
TTITLE10=I'M LEAVIN' YOU (COMMIT A CRIME) (LIVE)
TTITLE11=RUDE MOOD - PIPELINE (LIVE - FEAUTIORING JIMMIE VAUGHAN)
TTITLE12=THE SKY IS CRYING (LIVE)
TTITLE13=VOODO CHILE (SLIGHT RETURN) (LIVE)
EXTD=
EXTT0=
EXTT1=
EXTT2=
EXTT3=
EXTT4=
EXTT5=
EXTT6=
EXTT7=
EXTT8=
EXTT9=
EXTT10=
EXTT11=
EXTT12=
EXTT13=
PLAYORDER=
